{"accessors" : [{"bufferView" : 0, "byteOffset" : 0, "componentType" : 5123, "count" : 4062, "type" : "SCALAR", "max" : [696], "min" : [0]}, {"bufferView" : 1, "byteOffset" : 0, "componentType" : 5126, "count" : 697, "type" : "VEC3", "max" : [1.06611859798431, 1.06800365447998, 1.07023596763611], "min" : [-1.06595277786255, -1.06511759757996, -1.06806838512421]}, {"bufferView" : 1, "byteOffset" : 12, "componentType" : 5126, "count" : 697, "type" : "VEC3", "max" : [0.999968826770782, 0.998040080070496, 0.999143660068512], "min" : [-0.99942272901535, -0.999141097068787, -0.999329686164856]}, {"bufferView" : 1, "byteOffset" : 24, "componentType" : 5126, "count" : 697, "type" : "VEC3", "max" : [0.878301620483398, 0.999330163002014, 0.999775767326355], "min" : [-0.84015166759491, -0.979453682899475, -0.999937415122986]}, {"bufferView" : 1, "byteOffset" : 36, "componentType" : 5126, "count" : 697, "type" : "VEC3", "max" : [0.878301620483398, 0.999330163002014, 0.999775767326355], "min" : [-0.84015166759491, -0.979453682899475, -0.999937415122986]}, {"bufferView" : 1, "byteOffset" : 48, "componentType" : 5126, "count" : 697, "type" : "VEC2", "max" : [0.998040020465851, -0.00194999994710088], "min" : [0.00194999994710088, -0.899360001087189]}, {"bufferView" : 0, "byteOffset" : 8124, "componentType" : 5123, "count" : 225792, "type" : "SCALAR", "max" : [40943], "min" : [0]}, {"bufferView" : 2, "byteOffset" : 0, "componentType" : 5126, "count" : 40944, "type" : "VEC3", "max" : [1.54290843009949, 1.54290843009949, 1.54290843009949], "min" : [-1.54290843009949, -1.54290843009949, -1.54290843009949]}, {"bufferView" : 2, "byteOffset" : 12, "componentType" : 5126, "count" : 40944, "type" : "VEC3", "max" : [0.998574018478394, 0.998574018478394, 0.998574018478394], "min" : [-0.998574018478394, -0.998574018478394, -0.998574018478394]}, {"bufferView" : 2, "byteOffset" : 24, "componentType" : 5126, "count" : 40944, "type" : "VEC3", "max" : [0.999075651168823, 0.999075651168823, 0.999075591564178], "min" : [-0.999075591564178, -0.999075651168823, -0.999075591564178]}, {"bufferView" : 2, "byteOffset" : 36, "componentType" : 5126, "count" : 40944, "type" : "VEC3", "max" : [0.999075651168823, 0.999075651168823, 0.999075591564178], "min" : [-0.999075591564178, -0.999075651168823, -0.999075591564178]}, {"bufferView" : 2, "byteOffset" : 48, "componentType" : 5126, "count" : 40944, "type" : "VEC2", "max" : [0.998040020465851, -0.00194999994710088], "min" : [0.00194999994710088, -0.934260010719299]}, {"bufferView" : 0, "byteOffset" : 459708, "componentType" : 5123, "count" : 20160, "type" : "SCALAR", "max" : [3667], "min" : [0]}, {"bufferView" : 4, "byteOffset" : 0, "componentType" : 5126, "count" : 3668, "type" : "VEC3", "max" : [1.12574541568756, 1.1126583814621, 1.10006844997406], "min" : [-0.988766729831696, -1.17464935779572, -1.10748565196991]}, {"bufferView" : 4, "byteOffset" : 12, "componentType" : 5126, "count" : 3668, "type" : "VEC3", "max" : [0.999697625637054, 0.999810814857483, 0.999721109867096], "min" : [-0.999466359615326, -0.998211264610291, -0.999721884727478]}, {"bufferView" : 4, "byteOffset" : 24, "componentType" : 5126, "count" : 3668, "type" : "VEC3", "max" : [0.999979555606842, 0.999718904495239, 0.999756693840027], "min" : [-0.999712884426117, -0.999293267726898, -0.999335825443268]}, {"bufferView" : 4, "byteOffset" : 36, "componentType" : 5126, "count" : 3668, "type" : "VEC3", "max" : [0.999979555606842, 0.999718904495239, 0.999756693840027], "min" : [-0.999712884426117, -0.999293267726898, -0.999335825443268]}, {"bufferView" : 4, "byteOffset" : 48, "componentType" : 5126, "count" : 3668, "type" : "VEC2", "max" : [0.528779983520508, -0.00194999994710088], "min" : [0.00194999994710088, -0.748399972915649]}, {"bufferView" : 0, "byteOffset" : 500028, "componentType" : 5123, "count" : 21168, "type" : "SCALAR", "max" : [3835], "min" : [0]}, {"bufferView" : 5, "byteOffset" : 0, "componentType" : 5126, "count" : 3836, "type" : "VEC3", "max" : [1.06344628334045, 1.13996231555939, 1.11040329933167], "min" : [-1.01303112506866, -1.188716173172, -1.09550392627716]}, {"bufferView" : 5, "byteOffset" : 12, "componentType" : 5126, "count" : 3836, "type" : "VEC3", "max" : [0.999923706054688, 0.999883055686951, 0.999802947044373], "min" : [-0.99988329410553, -0.999967396259308, -0.999679625034332]}, {"bufferView" : 5, "byteOffset" : 24, "componentType" : 5126, "count" : 3836, "type" : "VEC3", "max" : [0.99981826543808, 0.99958997964859, 0.999860942363739], "min" : [-0.998350918292999, -0.999412477016449, -0.999840199947357]}, {"bufferView" : 5, "byteOffset" : 36, "componentType" : 5126, "count" : 3836, "type" : "VEC3", "max" : [0.99981826543808, 0.99958997964859, 0.999860942363739], "min" : [-0.998350918292999, -0.999412477016449, -0.999840199947357]}, {"bufferView" : 5, "byteOffset" : 48, "componentType" : 5126, "count" : 3836, "type" : "VEC2", "max" : [0.998040020465851, -0.274830013513565], "min" : [0.406590014696121, -0.995689988136292]}, {"bufferView" : 0, "byteOffset" : 542364, "componentType" : 5123, "count" : 26838, "type" : "SCALAR", "max" : [4949], "min" : [0]}, {"bufferView" : 6, "byteOffset" : 0, "componentType" : 5126, "count" : 4950, "type" : "VEC3", "max" : [0.982378304004669, 1.03068697452545, 0.961444914340973], "min" : [-1.06953310966492, -1.06140756607056, -1.07467019557953]}, {"bufferView" : 6, "byteOffset" : 12, "componentType" : 5126, "count" : 4950, "type" : "VEC3", "max" : [0.999530673027039, 0.999566853046417, 0.999589145183563], "min" : [-0.999858438968658, -1.0000034570694, -0.999884009361267]}, {"bufferView" : 6, "byteOffset" : 24, "componentType" : 5126, "count" : 4950, "type" : "VEC3", "max" : [0.999858558177948, 0.999721825122833, 0.999859690666199], "min" : [-0.999730944633484, -0.999449729919434, -0.999899387359619]}, {"bufferView" : 6, "byteOffset" : 36, "componentType" : 5126, "count" : 4950, "type" : "VEC3", "max" : [0.999858558177948, 0.999721825122833, 0.999859690666199], "min" : [-0.999730944633484, -0.999449729919434, -0.999899387359619]}, {"bufferView" : 6, "byteOffset" : 48, "componentType" : 5126, "count" : 4950, "type" : "VEC2", "max" : [0.998040020465851, -0.00194999994710088], "min" : [0.00194999994710088, -0.935689985752106]}], "asset" : {"generator" : "Aspose.3D 20.2.1", "version" : "2.0"}, "buffers" : [{"uri" : "buffer.bin", "byteLength" : 6346740}], "bufferViews" : [{"buffer" : 0, "byteOffset" : 0, "byteLength" : 596040, "target" : 34963}, {"buffer" : 0, "byteOffset" : 596044, "byteLength" : 39032, "byteStride" : 56, "target" : 34962}, {"buffer" : 0, "byteOffset" : 635080, "byteLength" : 2292864, "byteStride" : 56, "target" : 34962}, {"buffer" : 0, "byteOffset" : 2927948, "byteLength" : 2721353}, {"buffer" : 0, "byteOffset" : 5649304, "byteLength" : 205408, "byteStride" : 56, "target" : 34962}, {"buffer" : 0, "byteOffset" : 5854716, "byteLength" : 214816, "byteStride" : 56, "target" : 34962}, {"buffer" : 0, "byteOffset" : 6069536, "byteLength" : 277200, "byteStride" : 56, "target" : 34962}], "images" : [{"mimeType" : "image/png", "bufferView" : 3}], "materials" : [{"pbrMetallicRoughness" : {"baseColorFactor" : [0.320374011993408, 0.320374011993408, 0.320374011993408, 1], "metallicFactor" : 0, "roughnessFactor" : 0}, "emissiveFactor" : [0, 0, 0], "alphaMode" : "OPAQUE", "doubleSided" : false}, {"pbrMetallicRoughness" : {"baseColorFactor" : [0.469419002532959, 0, 0, 1], "metallicFactor" : 0, "roughnessFactor" : 0}, "normalTexture" : {"index" : 0, "texCoord" : 0, "scale" : 1}, "emissiveFactor" : [0, 0, 0], "alphaMode" : "OPAQUE", "doubleSided" : false}, {"pbrMetallicRoughness" : {"baseColorFactor" : [1, 0.276517987251282, 0, 1], "metallicFactor" : 0, "roughnessFactor" : 0}, "emissiveFactor" : [0, 0, 0], "alphaMode" : "OPAQUE", "doubleSided" : false}, {"pbrMetallicRoughness" : {"baseColorFactor" : [1, 0.276517987251282, 0, 1], "metallicFactor" : 0, "roughnessFactor" : 0}, "emissiveFactor" : [0, 0, 0], "alphaMode" : "OPAQUE", "doubleSided" : false}, {"pbrMetallicRoughness" : {"baseColorFactor" : [0, 0.378037989139557, 1, 1], "metallicFactor" : 0, "roughnessFactor" : 0}, "emissiveFactor" : [0, 0, 0], "alphaMode" : "OPAQUE", "doubleSided" : false}], "meshes" : [{"primitives" : [{"attributes" : {"POSITION" : 1, "NORMAL" : 2, "BINORMAL" : 3, "TANGENT" : 4, "TEXCOORD_0" : 5}, "indices" : 0, "material" : 0, "mode" : 4}]}, {"primitives" : [{"attributes" : {"POSITION" : 7, "NORMAL" : 8, "BINORMAL" : 9, "TANGENT" : 10, "TEXCOORD_0" : 11}, "indices" : 6, "material" : 1, "mode" : 4}]}, {"primitives" : [{"attributes" : {"POSITION" : 13, "NORMAL" : 14, "BINORMAL" : 15, "TANGENT" : 16, "TEXCOORD_0" : 17}, "indices" : 12, "material" : 2, "mode" : 4}]}, {"primitives" : [{"attributes" : {"POSITION" : 19, "NORMAL" : 20, "BINORMAL" : 21, "TANGENT" : 22, "TEXCOORD_0" : 23}, "indices" : 18, "material" : 3, "mode" : 4}]}, {"primitives" : [{"attributes" : {"POSITION" : 25, "NORMAL" : 26, "BINORMAL" : 27, "TANGENT" : 28, "TEXCOORD_0" : 29}, "indices" : 24, "material" : 4, "mode" : 4}]}], "nodes" : [{"mesh" : 0, "name" : "Group60883"}, {"matrix" : [0.0984065867920669, -0.501684798607124, 0.809877747794684, 0, 0.501685261196126, 0.719437186987435, 0.384701971272157, 0, -0.809877883799164, 0.384702701404171, 0.336713554957135, 0, 0, 0, 0, 1], "mesh" : 1, "name" : "Group60898 Copy"}, {"mesh" : 2, "name" : "Group1122"}, {"mesh" : 3, "name" : "Group1137"}, {"matrix" : [-0.568596275950197, 0, 0.822616506853425, 0, 0, 1, 0, 0, -0.822616506853425, 0, -0.568596275950197, 0, 2.38418579101563E-07, 0, -4.76837158203125E-07, 1], "mesh" : 4, "name" : "Group50064"}, {"children" : [0, 1, 2, 3, 4], "matrix" : [0.937834707792503, 0, 0.347082897442334, 0, 0, 1, 0, 0, -0.347082897442334, 0, 0.937834707792503, 0, 0, 0, 0, 1], "name" : "Covid-2 Copy Copy Copy"}], "samplers" : [{"magFilter" : 9729, "minFilter" : 9729, "wrapS" : 10497, "wrapT" : 10497}], "scene" : 0, "scenes" : [{"nodes" : [5]}], "textures" : [{"sampler" : 0, "source" : 0}]}